<svg viewBox="0 0 48 32" xmlns="http://www.w3.org/2000/svg">
  <!-- Body -->
  <path d="M8 8 Q4 8 3 14 L1 24 Q0 30 6 30 Q10 30 14 24 L34 24 Q38 30 42 30 Q48 30 47 24 L45 14 Q44 8 40 8 Z" fill="#2a2a3a" stroke="#3a3a5a" stroke-width="1"/>
  <!-- Left thumbstick -->
  <circle cx="16" cy="18" r="4" fill="#1a1a2a" stroke="#4a4a6a" stroke-width="0.8"/>
  <circle cx="16" cy="18" r="2" fill="#3a3a5a"/>
  <!-- Right thumbstick -->
  <circle cx="28" cy="20" r="4" fill="#1a1a2a" stroke="#4a4a6a" stroke-width="0.8"/>
  <circle cx="28" cy="20" r="2" fill="#3a3a5a"/>
  <!-- D-pad -->
  <rect x="9" y="10" width="3" height="9" rx="1" fill="#3a3a5a"/>
  <rect x="7" y="12" width="7" height="3" rx="1" fill="#3a3a5a"/>
  <!-- ABXY buttons -->
  <circle cx="36" cy="12" r="2.5" fill="#4d96ff" fill-opacity="0.7"/>
  <circle cx="40" cy="14" r="2.5" fill="#ff4d4d" fill-opacity="0.7"/>
  <circle cx="36" cy="16" r="2.5" fill="#4caf7d" fill-opacity="0.7"/>
  <circle cx="32" cy="14" r="2.5" fill="#f5a623" fill-opacity="0.7"/>
  <!-- Bumpers -->
  <rect x="8" y="5" width="10" height="4" rx="2" fill="#3a3a5a"/>
  <rect x="30" y="5" width="10" height="4" rx="2" fill="#3a3a5a"/>
</svg>
